<mxfile modified="2023-06-02T21:51:31.923Z" host="Electron" agent="Mozilla/5.0 (Macintosh; Intel Mac OS X 10_15_7) AppleWebKit/537.36 (KHTML, like Gecko) draw.io/21.1.2 Chrome/106.0.5249.199 Electron/21.4.3 Safari/537.36" etag="YoR9Fi9j2e2zVuMyvdy2" version="21.1.2" type="device">
  <diagram id="Ht1M8jgEwFfnCIfOTk4-" name="Page-1">
    <mxGraphModel dx="1674" dy="854" grid="1" gridSize="10" guides="1" tooltips="1" connect="1" arrows="1" fold="1" page="1" pageScale="1" pageWidth="1169" pageHeight="827" math="0" shadow="0">
      <root>
        <mxCell id="0" />
        <mxCell id="1" parent="0" />
        <mxCell id="UEzPUAAOIrF-is8g5C7q-88" value="" style="edgeStyle=orthogonalEdgeStyle;rounded=0;orthogonalLoop=1;jettySize=auto;html=1;endArrow=open;endFill=0;strokeWidth=2;" parent="1" source="SOLaATFvumEIcmYHhmR9-1" edge="1">
          <mxGeometry relative="1" as="geometry">
            <mxPoint x="64.99" y="234" as="sourcePoint" />
            <mxPoint x="106.9982725615316" y="315.0344827586207" as="targetPoint" />
          </mxGeometry>
        </mxCell>
        <mxCell id="SOLaATFvumEIcmYHhmR9-1" value="&lt;font style=&quot;font-size: 10px;&quot;&gt;File&lt;/font&gt;" style="aspect=fixed;html=1;points=[];align=center;image;fontSize=12;image=img/lib/azure2/general/File.svg;" parent="1" vertex="1">
          <mxGeometry x="11.99" y="280.5" width="56.00000000000001" height="69" as="geometry" />
        </mxCell>
        <mxCell id="SOLaATFvumEIcmYHhmR9-33" value="" style="endArrow=classic;html=1;rounded=0;fontSize=12;dashed=1;" parent="1" edge="1">
          <mxGeometry width="50" height="50" relative="1" as="geometry">
            <mxPoint x="479.9999999999998" y="309.5016949152541" as="sourcePoint" />
            <mxPoint x="649" y="310" as="targetPoint" />
          </mxGeometry>
        </mxCell>
        <mxCell id="SOLaATFvumEIcmYHhmR9-35" value="&lt;font style=&quot;font-size: 10px;&quot;&gt;Scan file&lt;/font&gt;" style="edgeLabel;html=1;align=center;verticalAlign=middle;resizable=0;points=[];fontSize=12;" parent="SOLaATFvumEIcmYHhmR9-33" vertex="1" connectable="0">
          <mxGeometry x="-0.0043" relative="1" as="geometry">
            <mxPoint as="offset" />
          </mxGeometry>
        </mxCell>
        <mxCell id="SOLaATFvumEIcmYHhmR9-34" value="" style="endArrow=classic;html=1;rounded=0;fontSize=12;dashed=1;" parent="1" edge="1">
          <mxGeometry width="50" height="50" relative="1" as="geometry">
            <mxPoint x="639" y="330" as="sourcePoint" />
            <mxPoint x="480" y="329.84477611940304" as="targetPoint" />
          </mxGeometry>
        </mxCell>
        <mxCell id="SOLaATFvumEIcmYHhmR9-36" value="&lt;font style=&quot;font-size: 10px;&quot;&gt;Scan results&lt;/font&gt;" style="edgeLabel;html=1;align=center;verticalAlign=middle;resizable=0;points=[];fontSize=12;" parent="SOLaATFvumEIcmYHhmR9-34" vertex="1" connectable="0">
          <mxGeometry x="0.0129" relative="1" as="geometry">
            <mxPoint as="offset" />
          </mxGeometry>
        </mxCell>
        <mxCell id="qXlvel-bi4WhbtgMyOii-1" value="AWS Account" style="points=[[0,0],[0.25,0],[0.5,0],[0.75,0],[1,0],[1,0.25],[1,0.5],[1,0.75],[1,1],[0.75,1],[0.5,1],[0.25,1],[0,1],[0,0.75],[0,0.5],[0,0.25]];outlineConnect=0;gradientColor=none;html=1;whiteSpace=wrap;fontSize=12;fontStyle=0;shape=mxgraph.aws4.group;grIcon=mxgraph.aws4.group_aws_cloud_alt;strokeColor=#232F3E;fillColor=none;verticalAlign=top;align=left;spacingLeft=30;fontColor=#232F3E;dashed=0;labelBackgroundColor=#ffffff;container=1;pointerEvents=0;collapsible=0;recursiveResize=0;opacity=40;" parent="1" vertex="1">
          <mxGeometry x="80" y="230" width="400" height="170" as="geometry" />
        </mxCell>
        <mxCell id="UEzPUAAOIrF-is8g5C7q-77" value="" style="outlineConnect=0;fontColor=#232F3E;gradientColor=none;fillColor=#277116;strokeColor=none;dashed=0;verticalLabelPosition=bottom;verticalAlign=top;align=center;html=1;fontSize=12;fontStyle=0;aspect=fixed;pointerEvents=1;shape=mxgraph.aws4.bucket_with_objects;labelBackgroundColor=#ffffff;" parent="qXlvel-bi4WhbtgMyOii-1" vertex="1">
          <mxGeometry x="28" y="50" width="75" height="78" as="geometry" />
        </mxCell>
        <mxCell id="qXlvel-bi4WhbtgMyOii-6" value="AMaaS" style="outlineConnect=0;fontColor=#232F3E;gradientColor=#F78E04;gradientDirection=north;fillColor=#D05C17;strokeColor=#ffffff;dashed=0;verticalLabelPosition=bottom;verticalAlign=top;align=center;html=1;fontSize=12;fontStyle=0;aspect=fixed;shape=mxgraph.aws4.resourceIcon;resIcon=mxgraph.aws4.lambda;labelBackgroundColor=#ffffff;spacingTop=6;" parent="qXlvel-bi4WhbtgMyOii-1" vertex="1">
          <mxGeometry x="223" y="50" width="77" height="77" as="geometry" />
        </mxCell>
        <mxCell id="gMphVWZr9Liw3VwEEL_Q-4" value="" style="endArrow=classic;startArrow=classic;html=1;rounded=0;" parent="qXlvel-bi4WhbtgMyOii-1" source="UEzPUAAOIrF-is8g5C7q-77" target="qXlvel-bi4WhbtgMyOii-6" edge="1">
          <mxGeometry width="50" height="50" relative="1" as="geometry">
            <mxPoint x="133" y="114" as="sourcePoint" />
            <mxPoint x="183" y="64" as="targetPoint" />
          </mxGeometry>
        </mxCell>
        <mxCell id="gMphVWZr9Liw3VwEEL_Q-6" value="&lt;font style=&quot;font-size: 10px;&quot;&gt;Streaming Object&lt;/font&gt;" style="text;strokeColor=none;align=center;fillColor=none;html=1;verticalAlign=middle;whiteSpace=wrap;rounded=0;" parent="qXlvel-bi4WhbtgMyOii-1" vertex="1">
          <mxGeometry x="113" y="61" width="100" height="30" as="geometry" />
        </mxCell>
        <mxCell id="gMphVWZr9Liw3VwEEL_Q-7" value="" style="endArrow=classic;startArrow=classic;html=1;rounded=0;entryX=1;entryY=1;entryDx=0;entryDy=0;exitX=0;exitY=1;exitDx=0;exitDy=0;" parent="qXlvel-bi4WhbtgMyOii-1" source="gMphVWZr9Liw3VwEEL_Q-8" target="gMphVWZr9Liw3VwEEL_Q-8" edge="1">
          <mxGeometry width="50" height="50" relative="1" as="geometry">
            <mxPoint x="110" y="205" as="sourcePoint" />
            <mxPoint x="230" y="205" as="targetPoint" />
          </mxGeometry>
        </mxCell>
        <mxCell id="gMphVWZr9Liw3VwEEL_Q-8" value="&lt;font style=&quot;font-size: 10px;&quot;&gt;Scan every stream&lt;/font&gt;" style="text;strokeColor=none;align=center;fillColor=none;html=1;verticalAlign=middle;whiteSpace=wrap;rounded=0;" parent="qXlvel-bi4WhbtgMyOii-1" vertex="1">
          <mxGeometry x="300" y="62" width="100" height="30" as="geometry" />
        </mxCell>
        <mxCell id="gMphVWZr9Liw3VwEEL_Q-9" value="&lt;font style=&quot;font-size: 10px;&quot;&gt;Scan every stream until verdict&lt;/font&gt;" style="text;strokeColor=none;align=center;fillColor=none;html=1;verticalAlign=middle;whiteSpace=wrap;rounded=0;" parent="qXlvel-bi4WhbtgMyOii-1" vertex="1">
          <mxGeometry x="300" y="94" width="100" height="34" as="geometry" />
        </mxCell>
        <mxCell id="gMphVWZr9Liw3VwEEL_Q-10" value="&lt;font style=&quot;font-size: 10px;&quot;&gt;S3.Object.get()&lt;/font&gt;" style="text;strokeColor=none;align=center;fillColor=none;html=1;verticalAlign=middle;whiteSpace=wrap;rounded=0;" parent="qXlvel-bi4WhbtgMyOii-1" vertex="1">
          <mxGeometry x="113" y="91" width="100" height="30" as="geometry" />
        </mxCell>
        <mxCell id="gMphVWZr9Liw3VwEEL_Q-11" value="" style="group" parent="1" vertex="1" connectable="0">
          <mxGeometry x="650" y="262" width="130" height="100" as="geometry" />
        </mxCell>
        <mxCell id="SOLaATFvumEIcmYHhmR9-37" value="" style="rounded=0;whiteSpace=wrap;html=1;labelBackgroundColor=none;fontSize=12;fillColor=#E6E6E6;fontColor=#333333;strokeColor=none;" parent="gMphVWZr9Liw3VwEEL_Q-11" vertex="1">
          <mxGeometry width="130" height="100" as="geometry" />
        </mxCell>
        <mxCell id="SOLaATFvumEIcmYHhmR9-38" value="" style="endArrow=classic;html=1;rounded=0;fontSize=12;dashed=1;" parent="gMphVWZr9Liw3VwEEL_Q-11" edge="1">
          <mxGeometry width="50" height="50" relative="1" as="geometry">
            <mxPoint x="9.5" y="60" as="sourcePoint" />
            <mxPoint x="49.5" y="60" as="targetPoint" />
          </mxGeometry>
        </mxCell>
        <mxCell id="SOLaATFvumEIcmYHhmR9-40" value="" style="endArrow=classic;html=1;rounded=0;fontSize=12;dashed=1;" parent="gMphVWZr9Liw3VwEEL_Q-11" edge="1">
          <mxGeometry width="50" height="50" relative="1" as="geometry">
            <mxPoint x="49.5" y="80" as="sourcePoint" />
            <mxPoint x="20" y="80" as="targetPoint" />
          </mxGeometry>
        </mxCell>
        <mxCell id="SOLaATFvumEIcmYHhmR9-42" value="&lt;h6&gt;&lt;font style=&quot;font-size: 12px;&quot;&gt;Trend Micro domain&lt;/font&gt;&lt;/h6&gt;" style="text;html=1;strokeColor=none;fillColor=none;align=left;verticalAlign=middle;whiteSpace=wrap;rounded=0;labelBackgroundColor=none;fontSize=24;" parent="gMphVWZr9Liw3VwEEL_Q-11" vertex="1">
          <mxGeometry x="4.75" width="120.5" height="30" as="geometry" />
        </mxCell>
        <mxCell id="SOLaATFvumEIcmYHhmR9-43" value="&lt;font style=&quot;font-size: 10px;&quot;&gt;Trend Micro Global Smart Protection Server&lt;/font&gt;" style="rounded=0;whiteSpace=wrap;html=1;labelBackgroundColor=none;fontSize=12;fillColor=#6d8764;strokeColor=none;fontColor=#ffffff;align=center;" parent="gMphVWZr9Liw3VwEEL_Q-11" vertex="1">
          <mxGeometry x="5.25" y="30" width="120" height="60" as="geometry" />
        </mxCell>
      </root>
    </mxGraphModel>
  </diagram>
</mxfile>
